<?xml version="1.0" standalone="no"?>
<!DOCTYPE svg PUBLIC "-//W3C//DTD SVG 20010904//EN"
 "http://www.w3.org/TR/2001/REC-SVG-20010904/DTD/svg10.dtd">
<svg version="1.0" xmlns="http://www.w3.org/2000/svg"
 width="980.000000pt" height="970.000000pt" viewBox="0 0 980.000000 970.000000"
 preserveAspectRatio="xMidYMid meet">

<g transform="translate(0.000000,970.000000) scale(0.100000,-0.100000)"
fill="#000000" stroke="none">
<path d="M4525 9690 c-106 -8 -435 -57 -620 -91 -646 -121 -1368 -445 -1945
-874 -438 -326 -841 -750 -1145 -1205 -515 -773 -787 -1632 -812 -2565 -34
-1309 473 -2567 1414 -3511 694 -695 1539 -1153 2488 -1348 686 -142 1538
-117 2266 64 369 92 814 274 1174 479 491 280 971 683 1333 1119 886 1066
1273 2451 1066 3812 -137 898 -512 1721 -1097 2409 -127 150 -419 439 -567
561 -813 674 -1788 1068 -2820 1139 -205 14 -617 20 -735 11z m922 -659 c486
-63 869 -181 1328 -406 892 -439 1527 -1067 1952 -1930 373 -757 509 -1607
392 -2444 -66 -469 -170 -790 -419 -1287 -230 -458 -425 -730 -775 -1080 -238
-238 -414 -383 -683 -558 -432 -283 -1016 -529 -1475 -621 -186 -37 -347 -45
-881 -45 -526 0 -653 7 -841 47 -516 108 -1249 426 -1626 704 -323 239 -803
724 -1021 1030 -156 220 -345 566 -451 829 -208 512 -289 964 -291 1620 -1
410 21 626 95 930 182 743 584 1457 1129 2000 673 671 1534 1091 2485 1210
227 28 225 28 590 25 268 -2 361 -7 492 -24z"/>
<path d="M4975 8130 c-258 -23 -489 -139 -707 -354 -220 -216 -294 -427 -327
-931 -10 -149 -31 -680 -31 -787 l0 -48 -325 0 -325 0 0 -510 0 -510 329 0
328 0 7 -1102 c3 -607 9 -1365 12 -1684 l7 -581 436 -7 c240 -3 524 -7 631 -9
l195 -2 3 1693 2 1692 499 0 c467 0 500 1 505 18 25 81 65 499 82 855 l7 147
-547 0 -546 0 0 303 c0 319 8 427 40 530 38 124 106 184 241 214 100 23 460
22 649 0 74 -9 135 -15 136 -14 4 3 103 655 114 747 6 47 11 117 13 155 l2 70
-35 17 c-68 32 -287 64 -615 88 -192 14 -670 21 -780 10z"/>
</g>
</svg>
